<svg width="680" height="810" viewBox="0 0 680 810" xmlns="http://www.w3.org/2000/svg" font-family="Arial, Helvetica, sans-serif">
<defs>
<marker id="arrow" viewBox="0 0 10 10" refX="8" refY="5" markerWidth="6" markerHeight="6" orient="auto-start-reverse">
<path d="M2 1L8 5L2 9" fill="none" stroke="context-stroke" stroke-width="1.5" stroke-linecap="round" stroke-linejoin="round"/>
</marker>
<style>
.t-label { font-size: 12px; fill: #1a1a1a; }
.t-label-bold { font-size: 14px; font-weight: 500; fill: #1a1a1a; }
.t-module { font-size: 12px; font-weight: 500; fill: #444441; }
.t-relation { font-size: 10px; fill: #444441; font-style: italic; }
.uc-blue { fill: #E6F1FB; stroke: #185FA5; }
.uc-blue-text { fill: #0C447C; font-size: 12px; }
.uc-gray { fill: #F1EFE8; stroke: #5F5E5A; }
.uc-gray-text { fill: #444441; font-size: 12px; }
</style>
</defs>

<!-- System boundary -->
<rect x="125" y="30" width="530" height="750" rx="14" fill="none" stroke="#1a1a1a" stroke-width="1"/>
<text class="t-label-bold" x="390" y="52" text-anchor="middle">Sistem Manajemen Properti Hotel</text>

<!-- MODULE: FRONT OFFICE -->
<rect x="145" y="75" width="490" height="185" rx="8" fill="none" stroke="#5F5E5A" stroke-width="0.8" stroke-dasharray="4 3" opacity="0.6"/>
<text class="t-module" x="155" y="93">Front Office</text>

<g><rect class="uc-blue" x="170" y="105" width="200" height="34" rx="17" stroke-width="0.8"/><text class="uc-blue-text" x="270" y="122" text-anchor="middle" dominant-baseline="central">Kelola Reservasi</text></g>
<g><rect class="uc-blue" x="395" y="105" width="220" height="34" rx="17" stroke-width="0.8"/><text class="uc-blue-text" x="505" y="122" text-anchor="middle" dominant-baseline="central">Proses Check-in</text></g>
<g><rect class="uc-blue" x="170" y="155" width="200" height="34" rx="17" stroke-width="0.8"/><text class="uc-blue-text" x="270" y="172" text-anchor="middle" dominant-baseline="central">Kelola Guest Folio</text></g>
<g><rect class="uc-blue" x="395" y="155" width="220" height="34" rx="17" stroke-width="0.8"/><text class="uc-blue-text" x="505" y="172" text-anchor="middle" dominant-baseline="central">Proses Check-out</text></g>
<g><rect class="uc-blue" x="395" y="210" width="220" height="34" rx="17" stroke-width="0.8"/><text class="uc-blue-text" x="505" y="227" text-anchor="middle" dominant-baseline="central">Verifikasi Zero-Balance</text></g>

<!-- Include arrow: Check-out -> Verifikasi Zero-Balance (vertical) -->
<line x1="505" y1="189" x2="505" y2="210" stroke="#1a1a1a" stroke-width="0.9" stroke-dasharray="3 3" marker-end="url(#arrow)"/>
<text class="t-relation" x="512" y="202">«include»</text>

<!-- MODULE: HOUSEKEEPING -->
<rect x="145" y="275" width="490" height="90" rx="8" fill="none" stroke="#5F5E5A" stroke-width="0.8" stroke-dasharray="4 3" opacity="0.6"/>
<text class="t-module" x="155" y="293">Housekeeping</text>

<g><rect class="uc-blue" x="170" y="310" width="200" height="34" rx="17" stroke-width="0.8"/><text class="uc-blue-text" x="270" y="327" text-anchor="middle" dominant-baseline="central">Lihat Status Kamar</text></g>
<g><rect class="uc-blue" x="395" y="310" width="220" height="34" rx="17" stroke-width="0.8"/><text class="uc-blue-text" x="505" y="327" text-anchor="middle" dominant-baseline="central">Update Status Kamar</text></g>

<!-- MODULE: F&B -->
<rect x="145" y="380" width="490" height="140" rx="8" fill="none" stroke="#5F5E5A" stroke-width="0.8" stroke-dasharray="4 3" opacity="0.6"/>
<text class="t-module" x="155" y="398">Food &amp; Beverage</text>

<g><rect class="uc-blue" x="170" y="415" width="200" height="34" rx="17" stroke-width="0.8"/><text class="uc-blue-text" x="270" y="432" text-anchor="middle" dominant-baseline="central">Buat Captain Order</text></g>
<g><rect class="uc-blue" x="395" y="415" width="220" height="34" rx="17" stroke-width="0.8"/><text class="uc-blue-text" x="505" y="432" text-anchor="middle" dominant-baseline="central">Proses Bill F&amp;B</text></g>
<g><rect class="uc-blue" x="170" y="465" width="200" height="34" rx="17" stroke-width="0.8"/><text class="uc-blue-text" x="270" y="482" text-anchor="middle" dominant-baseline="central">Proses Pembayaran F&amp;B</text></g>
<g><rect class="uc-blue" x="395" y="465" width="220" height="34" rx="17" stroke-width="0.8"/><text class="uc-blue-text" x="505" y="482" text-anchor="middle" dominant-baseline="central">Charge to Room</text></g>

<!-- Extend arrow: Charge to Room -> Proses Pembayaran F&B (horizontal) -->
<line x1="395" y1="482" x2="370" y2="482" stroke="#1a1a1a" stroke-width="0.9" stroke-dasharray="3 3" marker-end="url(#arrow)"/>
<text class="t-relation" x="378" y="476">«extend»</text>

<!-- MODULE: AKUNTANSI -->
<rect x="145" y="535" width="490" height="90" rx="8" fill="none" stroke="#5F5E5A" stroke-width="0.8" stroke-dasharray="4 3" opacity="0.6"/>
<text class="t-module" x="155" y="553">Akuntansi (Night Auditor)</text>

<g><rect class="uc-blue" x="170" y="570" width="200" height="34" rx="17" stroke-width="0.8"/><text class="uc-blue-text" x="270" y="587" text-anchor="middle" dominant-baseline="central">Jalankan Night Audit</text></g>
<g><rect class="uc-blue" x="395" y="570" width="220" height="34" rx="17" stroke-width="0.8"/><text class="uc-blue-text" x="505" y="587" text-anchor="middle" dominant-baseline="central">Generate Night Report</text></g>

<!-- MODULE: ADMIN -->
<rect x="145" y="640" width="490" height="90" rx="8" fill="none" stroke="#5F5E5A" stroke-width="0.8" stroke-dasharray="4 3" opacity="0.6"/>
<text class="t-module" x="155" y="658">Admin</text>

<g><rect class="uc-gray" x="170" y="675" width="200" height="34" rx="17" stroke-width="0.8"/><text class="uc-gray-text" x="270" y="692" text-anchor="middle" dominant-baseline="central">Kelola Data Master</text></g>
<g><rect class="uc-gray" x="395" y="675" width="220" height="34" rx="17" stroke-width="0.8"/><text class="uc-gray-text" x="505" y="692" text-anchor="middle" dominant-baseline="central">Kelola Pengguna &amp; Role</text></g>

<!-- ACTOR: Front Office -->
<g>
<circle cx="60" cy="150" r="7" fill="none" stroke="#1a1a1a" stroke-width="1.3"/>
<line x1="60" y1="157" x2="60" y2="178" stroke="#1a1a1a" stroke-width="1.3"/>
<line x1="48" y1="165" x2="72" y2="165" stroke="#1a1a1a" stroke-width="1.3"/>
<line x1="60" y1="178" x2="50" y2="192" stroke="#1a1a1a" stroke-width="1.3"/>
<line x1="60" y1="178" x2="70" y2="192" stroke="#1a1a1a" stroke-width="1.3"/>
<text class="t-label" x="60" y="210" text-anchor="middle">Petugas</text>
<text class="t-label" x="60" y="224" text-anchor="middle">Front Office</text>
</g>
<line x1="72" y1="170" x2="170" y2="122" stroke="#1a1a1a" stroke-width="0.7"/>
<line x1="72" y1="170" x2="395" y2="122" stroke="#1a1a1a" stroke-width="0.7"/>
<line x1="72" y1="170" x2="170" y2="172" stroke="#1a1a1a" stroke-width="0.7"/>
<line x1="72" y1="170" x2="395" y2="172" stroke="#1a1a1a" stroke-width="0.7"/>

<!-- ACTOR: Housekeeping -->
<g>
<circle cx="60" cy="320" r="7" fill="none" stroke="#1a1a1a" stroke-width="1.3"/>
<line x1="60" y1="327" x2="60" y2="348" stroke="#1a1a1a" stroke-width="1.3"/>
<line x1="48" y1="335" x2="72" y2="335" stroke="#1a1a1a" stroke-width="1.3"/>
<line x1="60" y1="348" x2="50" y2="362" stroke="#1a1a1a" stroke-width="1.3"/>
<line x1="60" y1="348" x2="70" y2="362" stroke="#1a1a1a" stroke-width="1.3"/>
<text class="t-label" x="60" y="380" text-anchor="middle">Petugas</text>
<text class="t-label" x="60" y="394" text-anchor="middle">Housekeeping</text>
</g>
<line x1="72" y1="340" x2="170" y2="327" stroke="#1a1a1a" stroke-width="0.7"/>
<line x1="72" y1="340" x2="395" y2="327" stroke="#1a1a1a" stroke-width="0.7"/>

<!-- ACTOR: F&B -->
<g>
<circle cx="60" cy="450" r="7" fill="none" stroke="#1a1a1a" stroke-width="1.3"/>
<line x1="60" y1="457" x2="60" y2="478" stroke="#1a1a1a" stroke-width="1.3"/>
<line x1="48" y1="465" x2="72" y2="465" stroke="#1a1a1a" stroke-width="1.3"/>
<line x1="60" y1="478" x2="50" y2="492" stroke="#1a1a1a" stroke-width="1.3"/>
<line x1="60" y1="478" x2="70" y2="492" stroke="#1a1a1a" stroke-width="1.3"/>
<text class="t-label" x="60" y="510" text-anchor="middle">Petugas</text>
<text class="t-label" x="60" y="524" text-anchor="middle">F&amp;B</text>
</g>
<line x1="72" y1="470" x2="170" y2="432" stroke="#1a1a1a" stroke-width="0.7"/>
<line x1="72" y1="470" x2="395" y2="432" stroke="#1a1a1a" stroke-width="0.7"/>
<line x1="72" y1="470" x2="170" y2="482" stroke="#1a1a1a" stroke-width="0.7"/>

<!-- ACTOR: Akuntansi -->
<g>
<circle cx="60" cy="575" r="7" fill="none" stroke="#1a1a1a" stroke-width="1.3"/>
<line x1="60" y1="582" x2="60" y2="603" stroke="#1a1a1a" stroke-width="1.3"/>
<line x1="48" y1="590" x2="72" y2="590" stroke="#1a1a1a" stroke-width="1.3"/>
<line x1="60" y1="603" x2="50" y2="617" stroke="#1a1a1a" stroke-width="1.3"/>
<line x1="60" y1="603" x2="70" y2="617" stroke="#1a1a1a" stroke-width="1.3"/>
<text class="t-label" x="60" y="635" text-anchor="middle">Petugas</text>
<text class="t-label" x="60" y="649" text-anchor="middle">Akuntansi</text>
</g>
<line x1="72" y1="595" x2="170" y2="587" stroke="#1a1a1a" stroke-width="0.7"/>
<line x1="72" y1="595" x2="395" y2="587" stroke="#1a1a1a" stroke-width="0.7"/>

<!-- ACTOR: Administrator -->
<g>
<circle cx="60" cy="680" r="7" fill="none" stroke="#1a1a1a" stroke-width="1.3"/>
<line x1="60" y1="687" x2="60" y2="708" stroke="#1a1a1a" stroke-width="1.3"/>
<line x1="48" y1="695" x2="72" y2="695" stroke="#1a1a1a" stroke-width="1.3"/>
<line x1="60" y1="708" x2="50" y2="722" stroke="#1a1a1a" stroke-width="1.3"/>
<line x1="60" y1="708" x2="70" y2="722" stroke="#1a1a1a" stroke-width="1.3"/>
<text class="t-label" x="60" y="740" text-anchor="middle">Administrator</text>
</g>
<line x1="72" y1="700" x2="170" y2="692" stroke="#1a1a1a" stroke-width="0.7"/>
<line x1="72" y1="700" x2="395" y2="692" stroke="#1a1a1a" stroke-width="0.7"/>

<!-- Legend -->
<g transform="translate(200, 775)">
<line x1="0" y1="8" x2="30" y2="8" stroke="#1a1a1a" stroke-width="0.9" stroke-dasharray="3 3" marker-end="url(#arrow)"/>
<text class="t-label" x="38" y="12">relasi «include» / «extend»</text>
</g>

</svg>
